<svg width="28" height="30" viewBox="0 0 28 30" fill="none" xmlns="http://www.w3.org/2000/svg">
<g clip-path="url(#clip0_41_1453)">
<path d="M28.0001 18.4375C28.0001 21.5914 28.0001 24.7461 28.0001 27.9C28.0001 29.2272 27.2396 29.9991 25.9288 29.9991C19.8099 29.9991 13.6918 29.9991 7.5729 29.9991C6.36567 29.9991 5.56459 29.195 5.56286 27.9783C5.56028 26.3866 5.55596 24.7957 5.5689 23.204C5.57062 22.9386 5.49474 22.8698 5.23777 22.8733C4.13316 22.8864 3.02854 22.8794 1.92392 22.8794C0.796887 22.8794 0.000976562 22.0761 0.000976562 20.9352C0.000976562 18.3148 0.000976562 15.6936 0.00183887 13.0732C0.00183887 11.8974 0.767568 11.1177 1.92996 11.1133C3.04406 11.109 4.15816 11.1038 5.27226 11.1168C5.5163 11.1194 5.5689 11.0385 5.56804 10.8087C5.56028 7.9116 5.58614 5.01447 5.55079 2.11821C5.53441 0.789302 6.55452 -0.0113478 7.66172 -3.42636e-05C11.4473 0.039128 15.2345 0.0225928 19.0209 0.00692791C19.7987 0.00344682 20.4187 0.260177 20.9654 0.818021C23.0832 2.97803 25.2183 5.12064 27.3491 7.26934C27.7932 7.71753 28.001 8.25797 28.0001 8.88892C27.9984 12.0715 27.9993 15.2541 27.9993 18.4375H28.0001ZM27.0438 18.4863C27.0438 15.3124 27.0412 12.1394 27.049 8.9655C27.049 8.68963 26.9852 8.59825 26.6903 8.60086C24.9148 8.61652 23.1393 8.61043 21.3647 8.60869C20.2462 8.60782 19.49 7.85765 19.4865 6.735C19.4805 4.92396 19.4788 3.1138 19.4874 1.30276C19.4883 1.06083 19.4339 0.972929 19.1778 0.972929C15.3061 0.980762 11.4343 0.977281 7.56255 0.979892C6.90892 0.979892 6.52261 1.37238 6.52261 2.02857C6.52089 4.94485 6.52433 7.86113 6.51571 10.7774C6.51571 11.0428 6.59418 11.1116 6.85201 11.1107C9.62864 11.1029 12.4044 11.109 15.181 11.1072C16.5297 11.1072 17.2644 11.8409 17.2652 13.2037C17.267 15.758 17.2678 18.3122 17.2678 20.8665C17.2678 22.1014 16.4831 22.882 15.2656 22.8803C12.4518 22.8759 9.63727 22.8803 6.82356 22.8733C6.59418 22.8733 6.51657 22.9299 6.51744 23.1736C6.52778 24.7844 6.52175 26.3944 6.52347 28.0053C6.52347 28.5275 6.76233 28.8329 7.24522 29.0096C7.58325 29.1332 7.91524 29.0357 8.24981 29.0357C14.1325 29.0374 20.016 29.0314 25.8987 29.0453C26.579 29.047 27.0585 28.6232 27.0524 27.8922C27.0283 24.7566 27.0421 21.621 27.0429 18.4854L27.0438 18.4863ZM8.61802 21.9151V21.9169C10.8367 21.9169 13.0555 21.9178 15.2733 21.9169C15.9494 21.9169 16.3098 21.554 16.3098 20.8804C16.3107 18.3079 16.3107 15.7353 16.3107 13.1628C16.3107 12.4179 15.9744 12.0767 15.2414 12.0767C10.8514 12.0767 6.46139 12.0776 2.07224 12.0785C1.26253 12.0785 0.957276 12.3857 0.957276 13.195C0.957276 15.7484 0.957276 18.3018 0.957276 20.8552C0.957276 21.5618 1.2953 21.9143 1.99205 21.9151C4.20128 21.9169 6.41051 21.9151 8.61888 21.9151H8.61802ZM20.4618 1.74138C20.4523 1.80665 20.4368 1.85974 20.4368 1.91282C20.4368 3.5324 20.4334 5.15197 20.4428 6.77155C20.4454 7.30938 20.8007 7.64095 21.3517 7.64269C22.9185 7.64617 24.4853 7.64443 26.053 7.64095C26.1289 7.64095 26.2229 7.68272 26.2781 7.59744C24.3456 5.65064 22.4158 3.70819 20.4627 1.74138H20.4618Z" fill="#178435"/>
<path d="M6.75642 17.0086C6.75642 16.2558 6.7616 15.503 6.75297 14.7511C6.75125 14.5744 6.8004 14.5248 6.97631 14.5283C7.57044 14.5396 8.16543 14.5266 8.76043 14.5353C9.91333 14.5527 10.5359 15.067 10.78 16.2114C10.8981 16.7675 10.8946 17.3288 10.7653 17.8832C10.5368 18.864 9.90212 19.4088 8.90357 19.4506C8.25339 19.4775 7.60148 19.454 6.94958 19.4654C6.77108 19.468 6.75125 19.3836 6.75384 19.2391C6.75987 18.8675 6.75556 18.4959 6.75556 18.1243C6.75556 17.7527 6.75556 17.3811 6.75556 17.0094L6.75642 17.0086ZM7.75842 16.9799C7.75842 17.4568 7.76101 17.9328 7.7567 18.4097C7.75584 18.5429 7.7774 18.6238 7.94037 18.6168C8.24218 18.6038 8.54571 18.6221 8.84666 18.6047C9.333 18.5751 9.6167 18.3436 9.73225 17.8675C9.86504 17.3236 9.86763 16.7693 9.75208 16.2236C9.63998 15.6936 9.31489 15.4299 8.77853 15.3907C8.54312 15.3742 8.30599 15.3847 8.07144 15.3603C7.83258 15.3359 7.73687 15.3994 7.75066 15.6658C7.77481 16.1026 7.75756 16.5421 7.7567 16.9807L7.75842 16.9799Z" fill="#178435"/>
<path d="M2.21694 16.992C2.21694 16.2584 2.22211 15.5248 2.21349 14.7911C2.2109 14.6014 2.25315 14.5222 2.46183 14.5274C3.16979 14.5448 3.87774 14.53 4.58483 14.5509C5.40144 14.5753 5.924 15.1096 5.95677 15.9199C5.99385 16.8337 5.52216 17.4646 4.69693 17.5577C4.30458 17.6021 3.90534 17.603 3.50954 17.5925C3.26723 17.5856 3.20342 17.6709 3.21204 17.9032C3.22842 18.341 3.21032 18.7796 3.22066 19.2173C3.22497 19.3966 3.181 19.4636 2.98612 19.4654C2.21694 19.4714 2.21694 19.4793 2.21694 18.7056C2.21694 18.1338 2.21694 17.5621 2.21694 16.9912V16.992ZM3.21808 16.0469C3.21808 16.2271 3.2198 16.4081 3.21808 16.5882C3.21721 16.6874 3.24653 16.7553 3.35863 16.7562C3.72598 16.7597 4.09763 16.7849 4.45549 16.6962C4.95132 16.5726 5.08152 15.9756 4.7297 15.5961C4.49429 15.3429 4.20111 15.3812 3.91827 15.369C3.21808 15.3403 3.21721 15.3472 3.21894 16.0461L3.21808 16.0469Z" fill="#178435"/>
<path d="M11.6851 16.986C11.6851 16.2523 11.6911 15.5195 11.6807 14.7859C11.6782 14.5875 11.7394 14.524 11.9368 14.5257C12.8992 14.5344 13.8615 14.5335 14.8239 14.5283C14.9791 14.5283 15.0343 14.5675 15.0394 14.7337C15.0593 15.362 15.0662 15.362 14.4556 15.362C13.9365 15.362 13.4174 15.3673 12.8992 15.3594C12.7431 15.3568 12.6741 15.4021 12.6845 15.5674C12.7034 15.8694 12.5655 16.2497 12.7388 16.4534C12.9078 16.6518 13.2898 16.5073 13.5778 16.5178C13.8986 16.5291 14.2194 16.5238 14.5402 16.5186C14.6695 16.5169 14.7385 16.5604 14.7256 16.6988C14.7238 16.7179 14.7256 16.7371 14.7256 16.7562C14.7376 17.1618 14.5439 17.3642 14.1444 17.3637C13.7572 17.3637 13.37 17.3767 12.9837 17.3584C12.7552 17.348 12.6707 17.4046 12.6802 17.6526C12.7 18.1756 12.6784 18.7004 12.6896 19.2234C12.6931 19.4105 12.6379 19.4636 12.4499 19.4654C11.6868 19.4697 11.6868 19.4767 11.6868 18.6987C11.6868 18.1269 11.6868 17.556 11.6868 16.9842H11.6851V16.986Z" fill="#178435"/>
</g>
<defs>
<clipPath id="clip0_41_1453">
<rect width="28" height="30" fill="white"/>
</clipPath>
</defs>
</svg>
