<?xml version="1.0" encoding="UTF-8"?>
<svg id="Capa_1" data-name="Capa 1" xmlns="http://www.w3.org/2000/svg" viewBox="0 0 512 481.08">
  <path d="M0,166.57c1.97-7.52,4.85-14.71,11.7-18.98,4.13-2.57,8.95-5.09,13.64-5.5,9.72-.84,19.57-.25,29.7-.25v24.35c-5.41,0-10.54-.07-15.66,.01-9.88,.16-14.69,4.92-14.7,14.87-.03,86.81-.01,173.63,.03,260.44,0,9.82,5.31,14.96,15.23,14.95,5.29,0,11.61,1.44,15.56-.94,3.76-2.26,5.1-8.62,7.38-13.23,25.68-51.89,51.29-103.82,77.08-155.66,2.34-4.7,5.5-9.11,8.88-13.14,4.87-5.81,11.42-8.05,19.08-8.04,66.82,.1,133.64,.06,200.46,.06h6.74v-69.3c14.17,.75,24.47,11.88,24.76,26.41,.24,12.33,.06,24.66,.07,36.99,0,1.79,0,3.58,0,5.9h5.83c28.33,0,56.66,.25,84.98-.14,9.53-.13,16.86,2.32,21.24,11.19v8c-2.94,6.12-5.71,12.33-8.86,18.34-10.95,20.94-22.04,41.81-33.08,62.7-16.87,31.93-33.61,63.93-50.68,95.75-6.27,11.7-15.79,19.48-29.73,19.49-119.48,.14-238.95,.14-358.43,.22-10.67,0-19.69-3.47-25.85-12.43-2.3-3.34-3.61-7.37-5.37-11.08,0-97,0-194,0-291Z"/>
  <path d="M357.52,249.99h-19.64v-5.86c0-49.15,0-98.31,0-147.46,0-8.17-.95-9.11-9.22-9.11-13.33,0-26.66,.03-39.99-.01-9.1-.03-12.66-3.63-12.68-12.81-.03-15.5,0-30.99-.01-46.49,0-6.93-1.29-8.32-8.02-8.32-56.32-.02-112.64-.02-168.96,0-6.16,0-6.96,.92-6.96,7.45,0,104.81,.02,209.61-.11,314.42,0,3.64-1.08,7.53-2.59,10.87-3.87,8.59-8.28,16.94-12.47,25.39-.56,.06-1.13,.12-1.69,.18-.96-2.62-2.07-5.19-2.83-7.87-.4-1.4-.25-2.98-.25-4.47,0-113.14-.02-226.28,0-339.42,0-13.13,6.39-22.48,17.53-25.38,3.17-.83,6.59-1,9.89-1C160.17,.05,220.82,.11,281.47,0c6.11-.01,10.74,1.98,14.87,6.53,18.71,20.6,37.59,41.03,56.5,61.45,3.23,3.49,4.98,7.31,4.98,12.09-.03,55.49-.02,110.97-.03,166.46,0,.98-.15,1.96-.27,3.48Zm-32.37-182.65c-9.81-10.66-19.03-20.67-28.93-31.44v31.44h28.93Z"/>
  <path d="M215.16,107.71c29.47,0,58.94-.08,88.4,.11,3.32,.02,6.96,.93,9.86,2.5,4.26,2.32,6.12,6.61,5.29,11.47-.85,4.96-3.91,8.41-8.79,9.86-1.88,.56-3.94,.67-5.92,.67-59.27,.03-118.54,.01-177.81,.06-4.51,0-8.71-.71-11.78-4.24-3-3.46-4.37-7.47-2.53-12.02,2.06-5.11,5.91-8.04,11.38-8.31,5.48-.27,10.99-.09,16.48-.09,25.14,0,50.28,0,75.42,0Z"/>
  <path d="M214.93,203.56c-29.16,0-58.32,0-87.49,0-1.67,0-3.34,.08-5-.09-6.14-.61-11.25-6.05-11.35-11.97-.1-5.99,4.75-11.42,11-12.2,1.65-.21,3.32-.22,4.99-.22,58.66-.01,117.31-.03,175.97,.05,2.93,0,6.1,.26,8.74,1.38,5.21,2.21,7.98,8.12,6.86,13.12-1.21,5.41-6.05,9.72-11.75,9.85-8.83,.21-17.66,.08-26.49,.08-21.83,0-43.66,0-65.49,0Z"/>
  <path d="M151.06,250.81c-10.29,4.88-17.89,11.81-22.29,22.17-.45,1.07-2.04,2.17-3.22,2.33-7.02,.93-13.83-4.54-14.41-11.33-.57-6.59,4.89-12.83,12.15-13.09,9.25-.32,18.52-.08,27.78-.08Z"/>
</svg>