<?xml version="1.0" encoding="UTF-8"?>
<svg id="Capa_1" data-name="Capa 1" xmlns="http://www.w3.org/2000/svg" viewBox="0 0 469.64 604.68">
  <path d="M6.87,604.68c-5.36-3.1-6.87-7.91-6.87-13.87C.06,428.64,.06,266.48,0,104.3c0-5.05,1.51-8.96,5.15-12.59C34.18,62.88,63.07,33.87,92.04,4.95c1.79-1.79,3.85-3.3,5.78-4.94H410.81c5.39,3.12,6.79,8.01,6.79,13.92-.06,192.27-.06,384.55,0,576.82,0,5.91-1.4,10.8-6.79,13.92H6.87v.02ZM110.75,19.93V96.28c0,11.29-3.02,14.32-14.39,14.34-23.22,.03-46.44,0-69.66,0h-6.61v474.16H397.38V19.93H110.75Zm-19.91,15.56c-18.56,18.56-36.93,36.94-55.15,55.15h55.16V35.5l-.02-.02Z"/>
  <path d="M443.87,604.68c-4.06-2.71-8.22-5.93-6.37-11.27,1.06-3.02,4.42-5.38,7.06-7.65,1.04-.88,2.99-.7,4.9-1.07V19.97c-5.42-.73-10.96-1.8-12.21-8.62-1.02-5.63,2.55-8.64,6.61-11.35h18.9c5.36,3.1,6.89,7.92,6.87,13.88-.06,192.3-.06,384.62,0,576.92,0,5.96-1.51,10.77-6.87,13.88h-18.9Z"/>
  <path d="M84.95,409.72v83.86h88.19v-6.63c0-15.74-.08-31.49,.08-47.22,.06-6.37,4.12-10.46,9.63-10.44,5.47,.02,9.52,4.19,9.56,10.54,.11,21.05,.13,42.11,0,63.15-.05,6.82-3.78,10.65-10.69,10.69-35.22,.11-70.44,.11-105.67,0-6.66-.02-10.07-3.52-10.85-10.07-.13-1.17-.1-2.35-.1-3.54,0-32.07-.03-64.14,0-96.22,0-10.39,3.43-13.79,13.82-13.8,33.26-.03,66.5-.03,99.76,.02,2.34,0,5.34-.31,6.85,.94,2.74,2.31,6.27,5.62,6.35,8.61,.1,3-3.1,6.72-5.83,8.96-1.77,1.46-5.25,1.12-7.97,1.12-28.73,.06-57.45,.05-86.18,.05h-6.98l.02-.02Z"/>
  <path d="M208.78,182c42.9,0,85.81,0,128.71,.03,2.53,0,5.15,.1,7.58,.67,4.89,1.15,7.24,4.66,7.06,9.53-.16,4.61-2.61,7.78-7.27,8.77-2.09,.44-4.29,.63-6.43,.63-86.41,.03-172.8,.03-259.2,0-2.34,0-4.74-.18-7-.76-4.61-1.19-7.47-4.84-6.61-9.09,.67-3.28,3.61-6.61,6.41-8.74,1.85-1.41,5.28-.99,8.01-1.01,42.9-.05,85.81-.03,128.71-.03h.03Z"/>
  <path d="M208.85,338.01h128.73c9.95,0,14.6,3.1,14.66,9.74,.06,6.69-4.61,9.94-14.45,9.94H79.75c-9.73,0-14.57-3.38-14.42-10.02,.13-6.43,4.82-9.66,14.21-9.66H208.85Z"/>
  <path d="M241.63,90.99c32.27,0,64.53-.02,96.8,.03,2.52,0,5.18,.13,7.53,.91,4.47,1.46,6.46,4.99,6.14,9.61-.31,4.38-2.66,7.37-7,8.38-2.27,.52-4.68,.68-7.02,.7-64.53,.03-129.07,.03-193.6,0-2.14,0-4.32-.16-6.43-.57-4.97-.93-7.5-4.29-7.58-9.11-.08-4.86,2.48-8.27,7.32-9.4,2.26-.54,4.68-.52,7.02-.52,32.27-.03,64.53-.02,96.8-.02l.02-.02Z"/>
  <path d="M288.55,233.99c16.71,0,33.42-.05,50.13,.05,2.52,0,5.81-.26,7.37,1.14,2.63,2.37,5.65,5.94,5.72,9.06,.05,2.81-3.22,6.24-5.86,8.35-1.69,1.35-4.89,1.09-7.4,1.09-33.22,.06-66.45,.05-99.67,0-2.32,0-5.36,.29-6.84-.97-2.71-2.32-6.19-5.68-6.25-8.67-.06-3,3.2-6.59,5.88-8.92,1.59-1.38,4.87-1.07,7.39-1.09,16.51-.08,33.03-.05,49.54-.05v.02Z"/>
  <path d="M128.48,233.99c16.71,0,33.42-.03,50.13,.05,2.52,0,5.8-.29,7.39,1.09,2.68,2.32,5.96,5.91,5.91,8.92-.06,2.99-3.59,6.27-6.25,8.69-1.32,1.19-4.12,.96-6.25,.96-33.61,.05-67.23,.05-100.84,0-2.32,0-5.39,.23-6.8-1.07-2.65-2.44-5.83-5.85-5.94-8.96-.11-2.81,3.15-6.3,5.76-8.46,1.66-1.36,4.87-1.12,7.39-1.14,16.51-.08,33.03-.05,49.54-.05l-.03-.02Z"/>
  <path d="M129.15,286.01c16.51,0,33.03-.05,49.54,.03,2.52,0,5.81-.29,7.39,1.09,2.66,2.34,5.75,5.88,5.85,9,.08,2.81-3.13,6.35-5.8,8.38-1.87,1.43-5.26,1.14-7.97,1.14-32.83,.06-65.67,.05-98.49,.05-.78,0-1.58,.02-2.35,0-7.62-.24-12.13-4.06-11.94-10.12,.18-5.83,4.51-9.48,11.89-9.53,17.29-.1,34.6-.03,51.9-.03h-.02Z"/>
  <path d="M289.16,305.7c-16.71,0-33.42,.02-50.13-.03-2.14,0-4.34-.15-6.41-.65-4.84-1.15-7.37-4.43-7.29-9.35,.08-4.92,2.79-8.05,7.62-9.13,1.71-.37,3.49-.52,5.25-.52,33.61-.03,67.23-.03,100.86,0,2.13,0,4.34,.21,6.4,.76,4.6,1.25,6.77,4.64,6.72,9.21-.05,4.32-2.19,7.6-6.5,8.77-2.42,.67-5.03,.84-7.55,.86-16.32,.06-32.64,.03-48.94,.03l-.02,.05Z"/>
  <path d="M288.53,409.72c-16.51,0-33.03,.03-49.54-.05-2.52,0-5.8,.31-7.39-1.07-2.68-2.32-5.93-5.93-5.86-8.93,.06-2.99,3.49-6.41,6.25-8.64,1.67-1.35,4.89-.97,7.42-.99,32.83-.05,65.65-.03,98.49-.03,1.77,0,3.56-.05,5.29,.23,5.76,.91,9.13,4.66,9.01,9.84-.11,5.13-3.69,8.79-9.43,9.52-1.56,.19-3.13,.11-4.71,.11h-49.54l.02,.02Z"/>
  <path d="M288.53,461.7c-16.71,0-33.42,.08-50.13-.06-2.86-.03-6.59-.11-8.35-1.8-2.35-2.27-4.55-6.25-4.29-9.29,.24-2.73,3.52-5.7,6.17-7.5,1.85-1.25,4.94-.93,7.45-.94,32.83-.05,65.65-.03,98.49-.03,1.19,0,2.37-.05,3.54,.03,6.92,.5,10.88,4.22,10.77,10-.13,5.76-4.21,9.5-11.19,9.56-17.49,.13-34.99,.05-52.48,.05l.02-.02Z"/>
  <path d="M256.04,513.72c-6.48,0-12.94,.1-19.42-.03-6.98-.13-11.09-3.64-11.32-9.37-.24-5.99,3.83-10.04,11.11-10.15,13.14-.23,26.29-.21,39.43,0,7.32,.11,11.45,3.99,11.33,9.95-.11,5.94-4.37,9.5-11.71,9.6-6.48,.1-12.94,.02-19.42,.02v-.02Z"/>
</svg>