<?xml version="1.0" encoding="UTF-8"?>
<svg id="Capa_1" data-name="Capa 1" fill='#ffffff' xmlns="http://www.w3.org/2000/svg" viewBox="0 0 468.65 468.56">
  <path d="M187.85,0c6.61,1.16,13.2,2.38,19.82,3.46,12.58,2.06,24.66,5.84,36.36,10.8,26.76,11.34,49.4,28.36,67.71,50.86,17.21,21.14,28.95,45.11,34.92,71.82,7.75,34.63,5.31,68.47-7.33,101.64-7.26,19.05-17.54,36.25-30.84,51.63-16.08,18.6-35.21,33.21-57.43,43.87-18.26,8.76-37.45,14.18-57.49,16.23-27.43,2.81-54.13-.76-79.99-10.58-18.8-7.14-35.92-17.1-51.18-30.13-18.4-15.7-33.06-34.35-43.87-56.1-6.58-13.24-11.53-27.05-14.49-41.42-4.28-20.73-5.58-41.58-1.79-62.74,3.48-19.41,9.12-37.95,18.29-55.34,7.1-13.46,15.85-25.8,26.29-37.01,9.22-9.9,19.27-18.74,30.41-26.32,11.24-7.65,23.29-13.81,35.97-18.78,15.54-6.09,31.79-8.93,48.18-11.28,.85-.12,1.68-.41,2.51-.62,7.99,0,15.97,0,23.96,0Zm119.81,175.95c.21-72.5-58.41-132.27-132-132.18-73.07,.09-131.8,58.41-131.99,131.86-.19,73.28,59.15,132.04,131.66,132.13,73.14,.09,132.22-58.77,132.32-131.8Z"/>
  <path d="M468.65,429.81c-2.27,5.89-3.94,12.11-6.94,17.61-8.58,15.71-31.48,24.94-47.94,19.63-11.78-3.8-20.08-11.48-28.33-19.77-11.58-11.63-23.17-23.26-34.76-34.88-11.86-11.88-23.75-23.73-35.58-35.63-9.29-9.34-18.51-18.75-27.42-27.79,10.85-9.31,22.53-18.19,32.81-28.46,10.24-10.23,19.08-21.86,28.78-33.17,8.25,8.34,16.96,17.2,25.73,26,11.85,11.88,23.78,23.69,35.64,35.58,11.68,11.71,23.3,23.47,34.95,35.21,3.76,3.79,7.59,7.52,11.27,11.4,5.73,6.03,8.79,13.45,10.82,21.38,.27,1.07,.65,2.11,.98,3.16v9.73Z"/>
  <path class="cls-1" d="M175.04,73.6c-60.37,1.01-101.85,50.83-101.36,101.44h28.64c.2-20.15,7.48-37.2,21.43-51.16,14.03-14.05,31.23-21.29,51.3-21.53v-28.76Z"/>
  <path d="M175.04,73.6v28.76c-20.07,.24-37.27,7.48-51.3,21.53-13.94,13.96-21.23,31.01-21.43,51.16h-28.64c-.49-50.61,40.99-100.44,101.36-101.44Z"/>
</svg>