<?xml version="1.0"?>
<svg xmlns="http://www.w3.org/2000/svg" xmlns:xlink="http://www.w3.org/1999/xlink" xmlns:svgjs="http://svgjs.com/svgjs" version="1.1" width="512" height="512" x="0" y="0" viewBox="0 0 24 24" style="enable-background:new 0 0 512 512" xml:space="preserve" class=""><g><path xmlns="http://www.w3.org/2000/svg" d="m20.5 24h-12c-1.378 0-2.5-1.121-2.5-2.5v-15c0-1.379 1.122-2.5 2.5-2.5h12c1.378 0 2.5 1.121 2.5 2.5v15c0 1.379-1.122 2.5-2.5 2.5zm-12-19c-.827 0-1.5.673-1.5 1.5v15c0 .827.673 1.5 1.5 1.5h12c.827 0 1.5-.673 1.5-1.5v-15c0-.827-.673-1.5-1.5-1.5z" fill="#738070" data-original="#000000" style="" class=""/><path xmlns="http://www.w3.org/2000/svg" d="m4.5 21h-1c-1.378 0-2.5-1.121-2.5-2.5v-16c0-1.379 1.122-2.5 2.5-2.5h12c1.378 0 2.5 1.121 2.5 2.5 0 .276-.224.5-.5.5s-.5-.224-.5-.5c0-.827-.673-1.5-1.5-1.5h-12c-.827 0-1.5.673-1.5 1.5v16c0 .827.673 1.5 1.5 1.5h1c.276 0 .5.224.5.5s-.224.5-.5.5z" fill="#738070" data-original="#000000" style="" class=""/><path xmlns="http://www.w3.org/2000/svg" d="m18.5 17h-8c-.276 0-.5-.224-.5-.5s.224-.5.5-.5h8c.276 0 .5.224.5.5s-.224.5-.5.5z" fill="#738070" data-original="#000000" style="" class=""/><path xmlns="http://www.w3.org/2000/svg" d="m18.5 21h-8c-.276 0-.5-.224-.5-.5s.224-.5.5-.5h8c.276 0 .5.224.5.5s-.224.5-.5.5z" fill="#738070" data-original="#000000" style="" class=""/><path xmlns="http://www.w3.org/2000/svg" d="m18.5 13h-8c-.276 0-.5-.224-.5-.5s.224-.5.5-.5h8c.276 0 .5.224.5.5s-.224.5-.5.5z" fill="#738070" data-original="#000000" style="" class=""/><path xmlns="http://www.w3.org/2000/svg" d="m18.5 9h-8c-.276 0-.5-.224-.5-.5s.224-.5.5-.5h8c.276 0 .5.224.5.5s-.224.5-.5.5z" fill="#738070" data-original="#000000" style="" class=""/></g></svg>
