<?xml version="1.0" encoding="UTF-8"?>
<svg id="Capa_1" data-name="Capa 1" xmlns="http://www.w3.org/2000/svg" viewBox="0 0 499.06 570.87">
  <path d="M444.35,516c0-2.85,0-5,0-7.16,0-48.16-.04-96.32,.03-144.47,.02-15.19,9.88-26.48,24.27-28.18,14.75-1.74,28.35,8.9,30.04,23.66,.41,3.63,.35,7.32,.35,10.98,.02,56.49,.01,112.98,.02,169.47,0,19.74-10.79,30.56-30.59,30.56-146.47,0-292.95,0-439.42,0-17.28,0-28.89-10.96-28.93-28.14-.16-59.49-.13-118.98-.03-178.47,.02-13.71,8.17-24.23,20.52-27.42,11.59-2.99,24.44,1.79,30,12.5,2.64,5.07,3.94,11.39,3.98,17.16,.31,47.82,.25,95.65,.07,143.47-.02,4.9,.99,6.46,6.25,6.45,125.98-.16,251.95-.12,377.93-.13,1.63,0,3.26-.16,5.51-.28Z"/>
  <path d="M218.52,334.97c0-5.52-.03-9.62,0-13.72,.71-93.81,1.42-187.62,2.15-281.43,.04-5.16-.05-10.36,.51-15.47C222.76,9.85,235.16-.74,249.27,.04c14.67,.82,26.06,12.31,26.05,27.07-.03,29.99-.43,59.98-.65,89.97-.46,61.98-.89,123.96-1.35,185.94-.07,9.33-.2,18.65-.27,27.98,0,1.26,.17,2.52,.33,4.84,8.11-7.77,15.53-14.86,22.93-21.97,26.19-25.16,52.26-50.45,78.62-75.43,15.11-14.32,39.2-7.78,44.94,11.99,3.12,10.75,.22,20.18-7.73,27.85-27.09,26.15-54.29,52.18-81.44,78.27-21.98,21.12-44,42.21-65.9,63.42-11.23,10.87-28.01,11.05-38.99-.02-47.04-47.43-94.01-94.94-141.08-142.34-8.07-8.13-11.56-17.43-8.36-28.61,2.84-9.92,9.49-16.39,19.54-18.76,10.59-2.5,19.57,.64,27.24,8.43,27.46,27.9,55.06,55.68,82.61,83.5,3.86,3.9,7.75,7.77,12.76,12.79Z"/>
</svg>