<svg xmlns="http://www.w3.org/2000/svg" width="512" height="512" x="0" y="0" viewBox="0 0 225.8 213"><g id="eeccc4a0-fcd0-44a5-97ae-6d65286c998d" data-name="Capa 2"><g id="bdacc8c6-2f06-4f68-97cd-82340cbe9446" data-name="Capa 1"><g id="ba4701b9-e602-44cd-91f4-2b40b23021df" data-name="Capa 2"><g id="bea1a938-37b4-42a3-9bb9-340e3380dc6a" data-name="Capa 1-2"><path d="M50.6,47c11.6,0,21.9-.1,32.2,0,2.9,0,3.2-1.5,3.1-3.8V19.8c0-2.3,0-4.7,3.1-4.7s3,2.6,3,4.8c0,9.5-.1,19,0,28.4.1,3.9-1.6,4.9-5.1,4.8-11.5-.1-23,.2-34.5-.1-4.2-.1-5.8.8-5.6,5.4.3,12.7.1,25.3.1,38,0,2.4.5,5.5-3.3,5.5s-3.5-2.9-3.5-5.5c0-14.7,0-29.3-.1-43.9a8.8,8.8,0,0,1,2.6-6.3l37-42.5C82,.9,84.6,0,88.3,0h90.4c6.4,0,7,.6,7,7.2V95.2a13.8,13.8,0,0,1-.1,3.5c-.3,2-1.1,3.5-3.5,3.3s-2.8-1.5-3-3.3a31.7,31.7,0,0,1-.2-4.4q0-41.2.1-82.4c0-4-1.1-5-5-5H89.6c-2.2,0-4.2-.1-5.9,1.9Z" style="fill:#738070"/><path d="M59.2,173.2c-2.4-11.7-5.4-23.3-4.1-35-.8-6.8,1-13.4-1.4-19.6-1.4-3.7-3.4-7-7.8-7.6s-8.4,1.2-11,5.2c-.9,1.4-1.5,2.8-3.6,2.8-5.6-.2-9.3,3-12.4,7.2-5.6,7.4-10.6,15.2-15.5,23.2C0,154.8-.6,160.7.5,167c1.9,11.6,5,23,4.4,34.9-.3,7.4,4.3,11.7,11.7,11.9s16,.2,24,0c5.7-.2,10.8-2.3,13.5-7.8C59.2,195.7,61.6,184.8,59.2,173.2Zm-11,30.1h0a5.6,5.6,0,0,1-1.1,1.7,7.4,7.4,0,0,1-5.4,2h-25c-3.8.1-5.9-2-5.6-5.5.9-13.4-2.9-26.3-4.8-39.4a9.8,9.8,0,0,1,1.2-6.7,208.2,208.2,0,0,1,17.3-26.2l1-1.1c1.6-1.2,3.2-3.4,5.1-2.5s1,3.5.8,5.4a233.6,233.6,0,0,1-6.6,33.1c-.2.8-.3,1.7-.5,2.4s-.1,3.7,2.1,4.3,3.6-.6,4.1-2.6c2.8-12.8,6.8-25.3,7.2-38.6.1-3,.3-6,1.7-8.7s2.4-4.1,4.9-3.4,3.4,2.6,3.5,5,.1,2.4,0,3.5a167.5,167.5,0,0,0,5.1,49.4C55.8,185.4,52.3,194.5,48.2,203.3Z" style="fill:#738070"/><path d="M222.7,149.9a265.7,265.7,0,0,0-17.1-25.2c-2.3-2.9-5.2-5.4-9-5.6a7.3,7.3,0,0,1-6.3-3.6c-4.8-7-14-5.9-17.6,1.7a19.5,19.5,0,0,0-1.9,9.2c.4,15.1.1,30.2-3.9,45-3,11.3-.8,22.4,3.9,33a14.9,14.9,0,0,0,9.7,8.6c5.5,1.6,11,.3,15.3.8s9.4.2,13.6,0c7.6-.4,11.8-4.6,11.5-12.1-.4-9.9,1.7-19.5,3.4-29.1C225.7,164.9,227.4,157.2,222.7,149.9ZM216.8,177a102,102,0,0,0-2,22.7c.2,6-1.2,7.3-7.3,7.4h-23a7.8,7.8,0,0,1-7.7-5.1c-4.7-10.3-6.4-20.7-3.2-31.9a114.5,114.5,0,0,0,3.5-42.4c-.5-4.7,1.8-10,4.3-10.3s6.2,4.6,6.3,10.2c.1,13.6,4.1,26.4,7,39.5.6,2.7,1.5,4.6,4.5,3.7s2.2-3.1,1.7-5.3c-2.7-11.1-5.5-22.2-6.6-33.6a4.3,4.3,0,0,1-.1-.5c-.2-2-1.3-4.6.4-5.6s3.8,1.1,5.3,2.6c3.7,3.7,6.4,8.1,9.3,12.3C220.4,157.2,220.5,157.3,216.8,177Z" style="fill:#738070"/><path d="M112.9,197.8H70.5a17.5,17.5,0,0,1-4-.4,3.3,3.3,0,0,1-2.5-3.8,2.8,2.8,0,0,1,3.1-2.6h90.8c2.1.1,3.7,1,3.8,3.2s-1.8,3.3-3.9,3.5a20.4,20.4,0,0,1-3.5,0Z" style="fill:#738070"/><path d="M112.8,133.9H84.9c-2.7,0-5.6-.2-5.7-3.4S82,127,84.6,127H141c2.6,0,5.6,0,5.7,3.3s-3.2,3.5-6,3.5Z" style="fill:#738070"/><path d="M112.9,80.1H84.5c-2.5,0-5.6.4-5.4-3.4S82.3,74,84.5,74h56.8c2.3,0,5.3-.5,5.4,2.8s-3,3.3-5.4,3.3Z" style="fill:#738070"/><path d="M112.4,153.9h29c2.4,0,5.1.2,5.2,3.2s-2.9,3-5.1,3H84.1c-2.4,0-5.1.1-5-3.3S81.8,154,84,154Z" style="fill:#738070"/><path d="M112.4,107H84.5c-2.5,0-5.1-.2-5.3-3.2s2.9-2.9,5.1-2.9h57.3c2.1,0,5-.5,5.1,2.5s-2.8,3.6-5.4,3.6Z" style="fill:#738070"/><path d="M48.2,203.3h0a5.6,5.6,0,0,1-1.1,1.7,7.4,7.4,0,0,1-5.4,2h-25c-3.8.1-5.9-2-5.6-5.5.9-13.4-2.9-26.3-4.8-39.4a9.8,9.8,0,0,1,1.2-6.7,208.2,208.2,0,0,1,17.3-26.2l1-1.1c1.6-1.2,3.2-3.4,5.1-2.5s1,3.5.8,5.4a233.6,233.6,0,0,1-6.6,33.1c-.2.8-.3,1.7-.5,2.4s-.1,3.7,2.1,4.3,3.6-.6,4.1-2.6c2.8-12.8,6.8-25.3,7.2-38.6.1-3,.3-6,1.7-8.7s2.4-4.1,4.9-3.4,3.4,2.6,3.5,5,.1,2.4,0,3.5a167.5,167.5,0,0,0,5.1,49.4C55.8,185.4,52.3,194.5,48.2,203.3Z" style="fill:none"/><path d="M48.2,203.3a5.6,5.6,0,0,1-1.1,1.7,5.6,5.6,0,0,0,1.1-1.7Z" style="fill:#738070"/><path d="M216.8,177a102,102,0,0,0-2,22.7c.2,6-1.2,7.3-7.3,7.4h-23a7.8,7.8,0,0,1-7.7-5.1c-4.7-10.3-6.4-20.7-3.2-31.9a114.5,114.5,0,0,0,3.5-42.4c-.5-4.7,1.8-10,4.3-10.3s6.2,4.6,6.3,10.2c.1,13.6,4.1,26.4,7,39.5.6,2.7,1.5,4.6,4.5,3.7s2.2-3.1,1.7-5.3c-2.7-11.1-5.5-22.2-6.6-33.6a4.3,4.3,0,0,1-.1-.5c-.2-2-1.3-4.6.4-5.6s3.8,1.1,5.3,2.6c3.7,3.7,6.4,8.1,9.3,12.3C220.4,157.2,220.5,157.3,216.8,177Z" style="fill:none"/></g></g></g></g></svg>