<?xml version="1.0"?>
<svg xmlns="http://www.w3.org/2000/svg" xmlns:xlink="http://www.w3.org/1999/xlink" xmlns:svgjs="http://svgjs.com/svgjs" version="1.1" width="512" height="512" x="0" y="0" viewBox="0 0 512 512" style="enable-background:new 0 0 512 512" xml:space="preserve" class=""><g><g xmlns="http://www.w3.org/2000/svg"><g><circle cx="161.75" cy="73.755" r="7.5" fill="#738070" data-original="#000000" style="" class=""/><circle cx="196" cy="73.755" r="7.5" fill="#738070" data-original="#000000" style="" class=""/><circle cx="230.25" cy="73.755" r="7.5" fill="#738070" data-original="#000000" style="" class=""/><path d="m272.5 457.5h-33c-4.143 0-7.5 3.358-7.5 7.5s3.357 7.5 7.5 7.5h33c4.143 0 7.5-3.358 7.5-7.5s-3.357-7.5-7.5-7.5z" fill="#738070" data-original="#000000" style="" class=""/><path d="m452.494 129.412c-8.418-2.373-8.855-2.534-12.097-3.39v-87.66c0-21.153-17.209-38.362-38.361-38.362h-292.072c-21.152 0-38.361 17.209-38.361 38.361v87.66c-3.254.86-3.907 1.081-12.097 3.39-11.161 3.162-18.956 13.472-18.956 25.072v232.843c0 16.53 15.095 28.722 31.053 25.568v60.744c0 21.152 17.209 38.361 38.361 38.361h292.072c21.152 0 38.361-17.209 38.361-38.361v-60.744c15.956 3.153 31.053-9.034 31.053-25.568v-232.843c0-11.6-7.795-21.91-18.956-25.071zm-365.891-91.051c0-12.881 10.479-23.361 23.361-23.361h292.072c12.882 0 23.361 10.48 23.361 23.361v58.103c-4.699-1.453-17.422-3.377-26.011-4.127v-29.491c0-12.04-9.795-21.835-21.835-21.835h-243.103c-12.04 0-21.835 9.795-21.835 21.835v29.51c-12.384 1.076-23.426 3.309-26.011 4.109v-58.104zm41.01 53.139v-28.654c0-3.769 3.066-6.835 6.835-6.835h243.104c3.769 0 6.835 3.066 6.835 6.835v28.654zm167.982 15c-19.175 6.53-33.236 13.409-39.595 16.744-6.36-3.335-20.421-10.214-39.595-16.744zm129.802 367.139c0 12.881-10.479 23.361-23.361 23.361h-292.072c-12.882 0-23.361-10.48-23.361-23.361v-64.893c1.402-.341 11.429-3.635 26.011-5.33v11.783c0 12.04 9.795 21.835 21.835 21.835h243.104c12.04 0 21.835-9.795 21.835-21.835v-11.772c14.583 1.684 24.614 4.98 26.011 5.319v64.893zm-297.784-58.44v-12.821c35.517-.833 68.409 9.583 91.622 19.657h-84.787c-3.768-.001-6.835-3.067-6.835-6.836zm165.268 6.835c23.241-10.047 56.109-20.427 91.505-19.632v12.796c0 3.769-3.066 6.835-6.835 6.835h-84.67zm163.569-34.707c0 7.335-7.006 12.644-14.073 10.64-5.198.266-76.286-35.337-180.4 22.56-3.689 2.052-8.27 2.047-11.953-.009-103.606-57.861-175.295-22.29-180.4-22.551-7.061 2.001-14.073-3.296-14.073-10.64v-232.844c0-4.923 3.308-9.298 8.044-10.64l8.617-2.441v23.925c0 4.142 3.357 7.5 7.5 7.5s7.5-3.358 7.5-7.5v-49.375c0-2.557 1.783-4.733 4.336-5.292 70.686-15.499 140.286 17.022 156.953 25.61v248.495c-24.489-11.648-88.284-37.173-154.858-24.589-3.334.632-6.431-1.889-6.431-5.287v-154.5c0-4.142-3.357-7.5-7.5-7.5s-7.5 3.358-7.5 7.5v154.5c0 12.772 11.619 22.402 24.216 20.026 67.308-12.723 132.17 16.498 150.445 25.756 5.755 2.915 12.616 2.857 18.256 0 18.276-9.258 83.141-38.478 150.445-25.756 12.575 2.375 24.216-7.234 24.216-20.026v-19.979c0-4.142-3.357-7.5-7.5-7.5s-7.5 3.358-7.5 7.5v19.979c0 3.382-3.078 5.922-6.431 5.287-66.584-12.583-130.371 12.941-154.858 24.589v-248.5c16.65-8.601 86.128-41.134 156.953-25.605 2.553.56 4.336 2.736 4.336 5.292v183.895c0 4.142 3.357 7.5 7.5 7.5s7.5-3.358 7.5-7.5v-158.445l8.617 2.441c4.736 1.342 8.044 5.717 8.044 10.64v232.844z" fill="#738070" data-original="#000000" style="" class=""/></g></g></g></svg>
