<?xml version="1.0" encoding="UTF-8"?>
<svg id="OBJECTS" xmlns="http://www.w3.org/2000/svg" viewBox="0 0 179.68 387.84">
  <defs>
    <style>
      .cls-1 {
        fill: #fff;
      }
    </style>
  </defs>
  <path class="cls-1" d="M118.73,387.84V237.17c0-7.12,0-14.23,0-21.35,0-7.17-.04-14.34,.03-21.78h54.11c1.06-4.83,7.18-66.2,6.79-68.3-2.18,0-4.41,0-6.63,0h-40.79c-2.24,0-4.48,.05-6.72-.01-2.19-.06-4.42,.3-6.68-.28-.04-.84-.11-1.55-.11-2.26,0-12.63-.01-25.27,.01-37.9,0-1.43,.11-2.88,.31-4.3,1.04-7.64,5.81-12.65,13.37-14.01,1.25-.22,2.55-.23,3.82-.23,13.28-.02,26.55,0,39.83,0,.93,0,1.87,0,2.74,0,.53-3.11,.39-64.63-.12-66.46-.59-.03-1.22-.07-1.84-.08-3.44-.02-6.88-.03-10.32-.04-14.55-.05-29.11-.06-43.66-.15-8.57-.05-17.1,.33-25.52,2.08-13.34,2.78-25.36,8.2-35.38,17.62-9.25,8.7-15.35,19.35-19.21,31.35-3.08,9.59-4.55,19.44-4.6,29.49-.07,14.07-.02,28.15-.02,42.22,0,.92-.1,1.85-.16,3H0v68.31H38.13v193.76H118.73Z"/>
  <path d="M118.73,387.84H38.13V194.08H0V125.77H37.96c.06-1.15,.16-2.07,.16-3,0-14.07-.05-28.15,.02-42.22,.05-10.05,1.52-19.91,4.6-29.49,3.86-12.01,9.96-22.66,19.21-31.35,10.02-9.42,22.05-14.84,35.38-17.62C105.76,.33,114.28-.05,122.86,0c14.55,.09,29.11,.1,43.66,.15,3.44,.01,6.88,.02,10.32,.04,.63,0,1.25,.05,1.84,.08,.52,1.82,.65,63.35,.12,66.46-.88,0-1.81,0-2.74,0-13.28,0-26.55,0-39.83,0-1.28,0-2.57,.01-3.82,.23-7.55,1.35-12.33,6.37-13.37,14.01-.19,1.42-.31,2.87-.31,4.3-.02,12.63-.02,25.27-.01,37.9,0,.71,.07,1.42,.11,2.26,2.26,.57,4.49,.21,6.68,.28,2.24,.07,4.48,.01,6.72,.01h40.79c2.23,0,4.45,0,6.63,0,.39,2.1-5.73,63.47-6.79,68.3h-54.11c-.07,7.45-.03,14.62-.03,21.78,0,7.12,0,14.23,0,21.35v150.67Z"/>
</svg>