<?xml version="1.0" encoding="UTF-8"?>
<svg id="OBJECTS" xmlns="http://www.w3.org/2000/svg" viewBox="0 0 310.68 310.58">
  <path d="M145.69,0c6.47,0,12.94,0,19.41,0,.78,.17,1.55,.44,2.33,.5,23.33,1.75,45.25,8.27,65.35,20.23,41.3,24.56,66.62,60.49,75.52,107.81,1.06,5.64,1.6,11.37,2.38,17.06v19.41c-.18,.88-.4,1.76-.53,2.65-.9,6.4-1.39,12.88-2.71,19.18-17.49,83.43-98.3,137.11-181.75,120.85C47,292.35-7.52,219.05,.85,139.71c3.54-33.59,16.47-63.15,39.13-88.21C63.95,24.99,93.62,8.47,128.93,2.34,134.49,1.38,140.1,.77,145.69,0Zm27.71,124.72c0-10.66-.5-20.98,.15-31.22,.57-8.95,5.6-13.44,14.56-14,7.55-.48,15.15-.32,22.72-.43,1.18-.02,2.35,0,3.67,0V41.34c-12.19,0-24.22-.54-36.19,.11-26.62,1.44-44.38,18.65-46.55,45.21-.93,11.35-.45,22.82-.61,34.23-.02,1.18,0,2.36,0,3.91h-34.76c-.13,.74-.26,1.12-.26,1.51-.01,12.23,.03,24.46-.06,36.69-.02,2.37,1.3,2.27,2.91,2.27,9.6-.02,19.2,0,28.81,0,1.07,0,2.13,0,3.43,0v103.91h41.8v-103.86h39.97v-40.59h-39.57Z"/>
</svg>