<?xml version="1.0" encoding="UTF-8"?>
<svg id="OBJECTS" xmlns="http://www.w3.org/2000/svg" viewBox="0 0 384.35 385.03">
  <path d="M279.37,150.25c21,0,42.04,.69,63.01-.18,26.14-1.08,42.53,18.95,41.96,42.45-1.98,81.64-54.94,155.51-131.98,182.29-86.66,30.12-185.38-8.4-228.78-89.27C-32.52,181.02,15.3,53.03,126.66,12.14,186.21-9.72,243.33-1.34,297.1,31.51c11.53,7.05,12.78,21.71,3.13,31.3-10.53,10.45-21.21,20.74-31.83,31.11-8.77,8.56-16.64,9.86-27.61,4.18-16.9-8.75-34.74-13.08-53.85-12.64-49.83,1.15-94.05,39.53-102.01,88.82-9.82,60.78,29.95,116.16,90.94,123.73,44.48,5.52,80.18-11.51,105.47-49,3.83-5.67,.85-12.33-5.9-13.7-1.77-.36-3.64-.33-5.47-.33-19.5-.02-39.01,0-58.51-.02-12.97-.02-19.4-6.43-19.4-19.29,0-15.67-.03-31.33,0-47,.02-11.55,6.7-18.34,18.28-18.38,23-.08,46.01-.02,69.02-.02Z"/>
</svg>