<?xml version="1.0" encoding="UTF-8"?>
<svg id="Capa_1" data-name="Capa 1" xmlns="http://www.w3.org/2000/svg" viewBox="0 0 798.25 559.57">
  <path d="M398.42,559.05c-121.39,0-242.79-.64-364.17,.52C8.43,559.81-.18,552.72,0,525.96,1.13,361.9,1.11,197.82,.02,33.76-.16,7.17,8.22-.05,34.2,.05,276.98,.9,519.77,.91,762.56,0c27.01-.1,35.89,7.28,35.69,35.12-1.19,164.06-1.06,328.14-.08,492.2,.15,25.31-8.1,32.41-32.72,32.2-122.33-1.04-244.68-.47-367.02-.47ZM768.05,31.69H31.75V416.26c9.37-8.44,15.77-13.94,21.88-19.73,78.45-74.33,157.61-147.95,234.79-223.58,20.94-20.52,33.48-18.85,53.04,.77,46.84,46.97,95.8,91.84,143.92,137.53,13.42,12.74,26.91,25.4,41.16,38.85,34.97-42.19,68.24-81.05,99.96-121.15,15-18.97,26.24-21.05,41.61-.62,19.36,25.73,40.64,50.01,61.2,74.83,11.43,13.8,23.09,27.41,38.72,45.94V31.69Zm-120.53,218.38c-34.86,42.27-68.4,82.08-100.88,122.75-12.52,15.67-23.51,16.93-36.9,2.2-5.09-5.6-10.88-10.56-16.38-15.78-58.98-55.94-117.96-111.88-178.42-169.21-10.67,9.76-19.74,17.82-28.54,26.17-75.67,71.74-149.61,145.43-227.71,214.42-33.81,29.87-31.53,61.73-26.75,97.76H768.72c0-42.48,.14-83.06-.2-123.64-.04-4.35-1.84-9.53-4.57-12.89-38.23-46.91-76.76-93.57-116.43-141.77Z"/>
  <path d="M504.28,74.7c37.43,.23,66,29.43,65.87,67.33-.13,37.21-29.75,66.35-67.16,66.07-37.18-.28-66.37-30.03-66.1-67.36,.27-37.14,30-66.27,67.39-66.04Zm37.07,67.01c.19-20.36-17.67-38.28-38-38.15-20.9,.13-37.83,17.43-36.67,38.77,1.2,22.23,13.43,34.98,35.93,36.05,21.5,1.03,38.55-15.6,38.75-36.67Z"/>
</svg>