<?xml version="1.0" encoding="UTF-8"?>
<svg id="OBJECTS" xmlns="http://www.w3.org/2000/svg" viewBox="0 0 395.54 387.68">
  <path d="M247.5,387.59c0-2.13,0-3.69,0-5.25,0-33.39,0-66.78,0-100.18,0-12.2-5.05-17.25-17.2-17.25-21.73,0-43.45,0-65.18,0-12.4,0-17.35,4.98-17.35,17.48,0,33.52-.05,67.05,.07,100.57,.01,3.56-.8,4.75-4.59,4.72-23.46-.18-46.92-.08-70.38-.1-14.61-.01-22.27-7.61-22.27-22.09-.01-60,.04-120-.05-180-.01-8.18,2.89-14.49,9.29-19.69,41.03-33.34,81.93-66.83,122.88-100.27,10.7-8.74,19.06-8.78,29.67-.12,41.05,33.52,82.07,67.09,123.19,100.52,6.29,5.11,9.14,11.35,9.13,19.37-.08,60.13-.03,120.26-.05,180.4,0,14.07-7.69,21.85-21.67,21.88-23.73,.05-47.45,.01-71.18,.01-1.19,0-2.37,0-4.29,0Z"/>
  <path d="M395.54,162.01c-.26,3.97,0,8.05-.87,11.89-2.31,10.18-11.19,16.12-21.8,15.12-9.48-.9-17.08-8.81-17.32-19.27-.11-4.64-2-7.09-5.31-9.7-46.07-36.42-92.06-72.94-138.06-109.45-10.24-8.12-18.91-8.11-29.25,.1-46.21,36.66-92.42,73.34-138.69,109.94-2.87,2.27-4.46,4.43-4.5,8.47-.1,10.8-7.75,19.06-17.54,19.92-10.6,.92-20.02-5.05-21.56-15.29-1.16-7.77-.58-15.9,.04-23.81,.4-5.07,3.98-8.84,7.96-12C62.09,95.57,115.47,53.15,168.94,10.86c18.35-14.52,39.12-14.46,57.5,.09,53.36,42.23,106.63,84.57,159.96,126.83,5.93,4.7,9.12,10.6,8.89,18.24-.06,1.99,0,3.99,0,5.99,.08,0,.17,0,.25,.01Z"/>
</svg>