<?xml version="1.0" encoding="UTF-8"?>
<svg id="OBJECTS" xmlns="http://www.w3.org/2000/svg" viewBox="0 0 291.85 318.07">
  <path d="M291.85,241.03c-.04,31.43-18.3,58.99-47.09,70.99-28.79,12-62.4,6-83.87-16.82-19.25-20.45-37.1-42.23-55.46-63.51-3.86-4.48-3.32-10,.79-13.31,4.15-3.34,9.58-2.5,13.61,2.29,14.59,17.32,28.87,34.92,43.79,51.96,11.66,13.31,24.92,24.23,43.61,26.69,22.98,3.03,46.64-8.07,58.52-28.39,12.12-20.71,10.64-47.38-4.12-65.71-15.14-18.81-30.63-37.35-46.02-55.96-2.67-3.22-4.33-6.94-1.97-10.46,1.63-2.42,4.87-4.72,7.66-5.12,2.39-.34,5.97,1.45,7.65,3.45,16.07,19.13,32.1,38.3,47.63,57.87,10.58,13.34,15.33,28.98,15.27,46.02Z"/>
  <path d="M81.08,0c18.69,.53,38.34,8.48,53.24,25.92,16.2,18.99,31.68,38.59,47.43,57.97,4.04,4.97,3.83,10.35-.3,13.75-4.27,3.51-9.48,2.86-13.53-2.11-14.84-18.19-29.81-36.28-44.26-54.78-14.07-17.99-39.04-26.71-61.8-20.79-22.68,5.9-40.14,25.61-43.16,48.62-2.3,17.49,2.28,32.85,13.58,46.42,14.4,17.28,28.54,34.76,42.84,52.12,2.83,3.43,4.19,7.47,1.41,10.92-1.9,2.36-5.85,4.72-8.53,4.37-3.09-.4-6.35-3.32-8.58-5.95-13.53-16.05-26.62-32.46-40.17-48.48C6.79,113.26,.08,96.48,0,77.25-.18,34.28,34.07,.01,81.08,0Z"/>
  <path d="M79.75,69.84c2.97,2.15,5.9,3.52,7.8,5.77,28.94,34.18,57.75,68.47,86.59,102.74,12.97,15.41,25.96,30.82,38.92,46.24,4.66,5.54,4.7,10.74,.19,14.44-4.37,3.58-9.7,2.48-14.24-2.91-41.48-49.3-82.97-98.61-124.46-147.91-4.21-5.01-5.32-9.5-2.4-12.96,1.79-2.11,4.61-3.35,7.59-5.41Z"/>
</svg>