<svg width="27" height="26" viewBox="0 0 27 26" xmlns="http://www.w3.org/2000/svg">
<g clip-path="url(#clip0_41_1458)">
<path d="M11.3676 12.0322C11.66 13.636 12.3932 14.615 13.8315 14.9932C15.2886 15.3758 16.383 14.7824 17.3617 13.7974C19.1002 12.0471 20.8809 10.3372 22.6288 8.59592C24.1015 7.12814 24.15 5.20448 22.7695 3.95941C21.4125 2.73527 19.4973 2.86231 18.0168 4.28525C17.024 5.23886 16.2079 6.58407 15.0119 7.0534C13.8972 7.48985 12.3854 7.00109 11.28 6.93383C13.1624 5.04754 15.0009 2.77413 17.2835 1.03133C19.6646 -0.7877 23.2948 -0.0642735 25.3726 2.14935C27.4128 4.32262 27.5989 7.78879 25.5586 9.99344C23.3964 12.3311 21.1342 14.606 18.7265 16.712C15.9327 19.1544 11.3348 18.4115 9.27889 15.3952C8.91774 14.8631 8.8083 14.464 9.39458 13.9813C10.045 13.4462 10.5984 12.802 11.366 12.0337L11.3676 12.0322Z"/>
<path d="M15.8546 14.1397C14.6007 10.6048 12.0586 10.0562 9.54469 12.4627C7.82026 14.1128 6.08175 15.751 4.37138 17.4131C2.92211 18.8225 2.83925 20.6954 4.13218 21.9584C5.48453 23.2782 7.41846 23.1885 8.97248 21.7372C9.00219 21.7103 9.03189 21.6819 9.06004 21.6535C10.0293 20.7357 10.847 19.4428 12.0133 19.0124C13.0952 18.6133 14.5507 19.1349 16.1876 19.2814C13.8878 21.3187 11.8945 23.4441 9.53062 25.0823C7.05888 26.7952 3.4521 25.9791 1.48534 23.7057C-0.47986 21.4338 -0.536143 18.0348 1.55882 15.8586C3.71319 13.6211 5.95824 11.4493 8.31429 9.40754C11.1644 6.93833 15.803 7.6767 17.8386 10.7572C18.1934 11.2938 18.2998 11.6824 17.7244 12.1742C17.0834 12.7227 16.5534 13.3909 15.853 14.1382L15.8546 14.1397Z"/>
</g>
<defs>
<clipPath id="clip0_41_1458">
<rect width="27" height="26" />
</clipPath>
</defs>
</svg>
