<?xml version="1.0" encoding="UTF-8"?>
<svg id="OBJECTS" xmlns="http://www.w3.org/2000/svg" viewBox="0 0 358.2 194.48">
  <defs>
    <style>
      .cls-1 {
        fill: #292e37;
      }

      .cls-2 {
        fill: #fbfbfc;
      }

      .cls-3 {
        fill: #fafafb;
      }

      .cls-4 {
        fill: #2a2f38;
      }
    </style>
  </defs>
  <path class="cls-4" d="M178.86,0c35.3,.06,67.29,11.43,97.42,28.83,30.23,17.46,56.72,39.59,80.13,65.45,1.52,1.67,2.85,2.78,.59,5.22-36.47,39.48-78,71.51-130.11,87.63-45.02,13.93-88.2,7.27-129.76-13.25C60.68,155.89,29.69,130.72,2.11,101.1c-2.99-3.21-2.68-4.88,.17-7.93C35.06,58.08,72.18,29.14,117.43,11.76,137.16,4.18,157.6-.12,178.86,0Zm38.5,170.85c45.44-12.56,82-39.36,115.1-71.73,1.64-1.6,1.44-2.57-.08-3.97-4.04-3.72-7.89-7.64-11.96-11.32-28.02-25.33-58.72-46.32-95.01-58.13-3.57-1.16-7.1-2.92-11.16-2.35,.27,.32,.42,.64,.67,.76,38.81,18.64,56.24,65.63,39.13,105.03-7.8,17.95-20.61,31.12-37.39,40.73-.71,.37-1.83-.17-2.33,1.24,1.13-.1,2.08-.18,3.04-.27Zm-38.23-6.57c36.76-.1,66.86-30.14,66.85-66.7-.01-37.47-29.9-67.56-67.05-67.49-37.3,.07-67.19,30.09-67.13,67.44,.06,36.84,30.33,66.86,67.33,66.75Zm-36.76,6.67c-28.53-16.44-44.91-40.55-44.92-73.78,0-33.22,16.43-57.36,45.03-73.76-1.24-.1-2.22,0-3.15,.27C94.58,36.6,58.32,63.02,25.5,95c-2.23,2.17-1.12,3.17,.41,4.69,25.9,25.57,54.55,47.26,88.02,62.08,9.09,4.02,18.41,7.5,28.43,9.2Z"/>
  <path class="cls-3" d="M223.02,76.05c-6.49-20.18-33.92-32.85-57.05-26.71-25.1,6.66-41.01,32.59-35.57,57.95,5.61,26.13,30.34,43.03,56.74,38.77,23.09-3.73,42.96-26.71,40.59-46.96-9.09,5.91-15.41,6.18-21.14,.9-4.74-4.36-6.02-11.2-3.18-16.92,3.36-6.75,9.64-9.08,19.61-7.02Z"/>
  <path class="cls-2" d="M217.36,170.85c-.96,.08-1.92,.17-3.04,.27,.5-1.42,1.62-.87,2.33-1.24,.24,.32,.48,.65,.72,.97Z"/>
  <path class="cls-1" d="M223.02,76.05c-9.97-2.05-16.25,.28-19.61,7.02-2.84,5.72-1.56,12.55,3.18,16.92,5.73,5.28,12.05,5.01,21.14-.9,2.37,20.25-17.5,43.23-40.59,46.96-26.4,4.26-51.13-12.64-56.74-38.77-5.44-25.36,10.47-51.29,35.57-57.95,23.13-6.14,50.56,6.53,57.05,26.71Z"/>
</svg>