<?xml version="1.0" encoding="UTF-8"?>
<svg id="OBJECTS" xmlns="http://www.w3.org/2000/svg" viewBox="0 0 324.71 344.72">
  <path d="M324.71,211.86c0,36.24,0,72.49,0,108.73,0,15.25-8.82,24.12-24.02,24.12-70.96,0-141.91,0-212.87,0-14,0-23.29-9.24-23.31-23.22-.03-18.29-.08-36.57,.07-54.86,.02-3.05-.86-3.84-3.84-3.8-12.81,.15-25.62,.07-38.43,.07-13.07,0-22.3-9.23-22.3-22.34,0-30.11,0-60.23,.01-90.34,0-13.51,8.88-22.47,22.36-22.52,12.92-.05,25.84-.11,38.76,.04,2.83,.03,3.44-.9,3.43-3.54-.09-33.29,.21-66.58-.2-99.86C64.18,9.07,76.01-.13,88.85,0c43.9,.45,87.82,.26,131.73,.08,9.02-.04,16.21,2.91,22.55,9.32,24.56,24.82,49.32,49.44,74.03,74.13,5.15,5.15,7.56,11.36,7.55,18.61-.02,36.57-.01,73.14-.01,109.72h.01Zm-11.09,.56c0-36.47-.03-72.93,.06-109.4,0-3.17-.74-4.22-4.16-4.19-20.59,.18-41.18,.11-61.76,.09-12.97-.01-21.74-8.63-21.78-21.53-.07-20.81-.09-41.61,.01-62.42,.01-2.78-.62-3.79-3.59-3.79-44.9,.09-89.8,.05-134.7,.08-7.58,0-12.06,4.51-12.06,12.05-.02,33.51,.02,67.02-.08,100.53,0,3.05,.91,3.84,3.9,3.83,32.2-.09,64.39-.02,96.59-.04,15.64,0,24.16,8.43,24.17,24.09,.02,29.35,.03,58.7,.03,88.05,0,14.19-9.1,23.16-23.22,23.14-32.63-.05-65.27,0-97.9-.08-2.66,0-3.56,.65-3.55,3.45,.12,18.51,.05,37.01,.07,55.52,0,6,2.77,9.51,8.37,11.54,3.92,1.42,7.77,.3,11.65,.3,68.22,.02,136.45-.05,204.67,.11,7.89,.02,13.45-4.85,13.38-13.25-.28-36.03-.12-72.06-.11-108.09Zm-213.68,39.4v.02c25.73,0,51.46,.01,77.18,0,7.84,0,12.02-4.17,12.02-11.91,.01-29.56,.01-59.12,.01-88.68,0-8.56-3.9-12.48-12.4-12.48-50.91,0-101.82,.01-152.72,.02-9.39,0-12.93,3.53-12.93,12.83,0,29.34,0,58.68,0,88.02,0,8.12,3.92,12.17,12,12.18,25.62,.02,51.24,0,76.85,0ZM237.29,20.01c-.11,.75-.29,1.36-.29,1.97,0,18.61-.04,37.22,.07,55.83,.03,6.18,4.15,9.99,10.54,10.01,18.17,.04,36.34,.02,54.52-.02,.88,0,1.97,.48,2.61-.5-22.41-22.37-44.79-44.69-67.44-67.29Z"/>
  <path d="M78.35,195.44c0-8.65,.06-17.3-.04-25.94-.02-2.03,.55-2.6,2.59-2.56,6.89,.13,13.79-.02,20.69,.08,13.37,.2,20.59,6.11,23.42,19.26,1.37,6.39,1.33,12.84-.17,19.21-2.65,11.27-10.01,17.53-21.59,18.01-7.54,.31-15.1,.04-22.66,.17-2.07,.03-2.3-.94-2.27-2.6,.07-4.27,.02-8.54,.02-12.81,0-4.27,0-8.54,0-12.81Zm11.62-.33c0,5.48,.03,10.95-.02,16.43-.01,1.53,.24,2.46,2.13,2.38,3.5-.15,7.02,.06,10.51-.14,5.64-.34,8.93-3,10.27-8.47,1.54-6.25,1.57-12.62,.23-18.89-1.3-6.09-5.07-9.12-11.29-9.57-2.73-.19-5.48-.07-8.2-.35-2.77-.28-3.88,.45-3.72,3.51,.28,5.02,.08,10.07,.07,15.11Z"/>
  <path d="M25.71,195.25c0-8.43,.06-16.86-.04-25.29-.03-2.18,.46-3.09,2.88-3.03,8.21,.2,16.42,.03,24.62,.27,9.47,.28,15.53,6.42,15.91,15.73,.43,10.5-5.04,17.75-14.61,18.82-4.55,.51-9.18,.52-13.77,.4-2.81-.08-3.55,.9-3.45,3.57,.19,5.03-.02,10.07,.1,15.1,.05,2.06-.46,2.83-2.72,2.85-8.92,.07-8.92,.16-8.92-8.73,0-6.57,0-13.14,0-19.7Zm11.61-10.86c0,2.07,.02,4.15,0,6.22-.01,1.14,.33,1.92,1.63,1.93,4.26,.04,8.57,.33,12.72-.69,5.75-1.42,7.26-8.28,3.18-12.64-2.73-2.91-6.13-2.47-9.41-2.61-8.12-.33-8.13-.25-8.11,7.78Z"/>
  <path d="M135.51,195.18c0-8.43,.07-16.85-.05-25.28-.03-2.28,.68-3.01,2.97-2.99,11.16,.1,22.32,.09,33.48,.03,1.8,0,2.44,.45,2.5,2.36,.23,7.22,.31,7.22-6.77,7.22-6.02,0-12.04,.06-18.05-.03-1.81-.03-2.61,.49-2.49,2.39,.22,3.47-1.38,7.84,.63,10.18,1.96,2.28,6.39,.62,9.73,.74,3.72,.13,7.44,.07,11.16,.01,1.5-.02,2.3,.48,2.15,2.07-.02,.22,0,.44,0,.66q.21,6.99-6.74,6.98c-4.49,0-8.98,.15-13.46-.06-2.65-.12-3.63,.53-3.52,3.38,.23,6.01-.02,12.04,.11,18.05,.04,2.15-.6,2.76-2.78,2.78-8.85,.05-8.85,.13-8.85-8.81,0-6.57,0-13.13,0-19.7h-.02Z"/>
</svg>