<?xml version="1.0" encoding="UTF-8"?>
<svg id="OBJECTS" xmlns="http://www.w3.org/2000/svg" viewBox="0 0 286.84 286.92">
  <path d="M143.24,286.92C65.88,285.96,.25,226.39,0,143.2-.22,67.4,58.68,.06,143.48,0c85.82-.06,143.56,69.74,143.36,143.49-.2,75.94-59.01,142.14-143.6,143.43Zm-1.91-97.47c5.55,4.12,11.21,8.31,16.86,12.51,5.95,4.41,11.84,8.9,17.85,13.22,6.56,4.71,11.62,2.81,13.64-4.98,.15-.58,.29-1.17,.42-1.75,7.18-33.73,14.38-67.45,21.51-101.19,.96-4.53,2.02-9.11,2.22-13.7,.22-5.36-4.14-8.22-9.27-6.72-.82,.24-1.64,.53-2.44,.84-41.95,16.18-83.91,32.35-125.85,48.56-5.05,1.95-10.06,4.02-14.99,6.24-1.93,.87-3.37,2.58-3.14,4.92,.23,2.39,2.25,3.06,4.17,3.65,11.51,3.52,23.04,6.97,34.52,10.57,1.77,.56,3.03,.3,4.52-.65,8.7-5.56,17.46-11.03,26.2-16.53,17.99-11.32,35.98-22.65,53.97-33.96,1.52-.96,3.15-2.12,4.84-.65,.16,.14-1.27,2.61-2.34,3.59-21,19.28-42.07,38.49-63.06,57.77-.89,.82-1.63,2.22-1.75,3.42-.76,7.71-1.34,15.44-1.95,23.16-.3,3.82-.52,7.65-.83,12.27,10.79-4.56,16.34-14.25,24.89-20.56Z"/>
</svg>