<?xml version="1.0" encoding="UTF-8"?>
<svg id="Capa_1" data-name="Capa 1" xmlns="http://www.w3.org/2000/svg" viewBox="0 0 655.43 511.64">
  <defs>
    <style>
      .cls-1 {
        fill: #fff;
      }

      .cls-2 {
        fill: #010101;
      }
    </style>
  </defs>
  <path class="cls-2" d="M655.39,511.64H0V40.75H45.69c0-11.27,.38-21.7-.13-32.08-.31-6.32,1.65-8.39,8.05-8.55C120.69-1.57,183.21,14.82,241.76,47.06c29.99,16.52,56.79,37.32,80.67,61.87,1.59,1.63,2.72,3.74,5.46,7.57,2.38-3.64,3.37-5.85,4.96-7.46C396.2,44.99,473.22,9.91,562.56,1.34c13.4-1.28,26.99-.67,40.48-1.11,5.02-.17,6.98,1.55,6.78,6.86-.38,10.89-.11,21.79-.11,33.27h45.73V511.64h-.04Zm-316.06-38.41c73.64-56.16,157.52-76.87,246.38-81.67V22.87c-12.84,1.23-25.16,1.94-37.32,3.66-80.07,11.33-148.5,45.5-204.25,104.45-3.45,3.64-4.91,7.3-4.91,12.38,.13,107.19,.1,214.37,.1,321.56v8.3ZM69.63,22.25V391.62c89.41,4.7,173.11,25.72,246.42,81.51v-6.21c0-108.34,.06-216.69-.21-325.03,0-3.64-2.24-8.03-4.81-10.79-50.71-54.6-113.37-87.65-186.22-101.56-17.96-3.43-36.32-4.85-55.18-7.3v.02ZM631.99,488.02V64.59h-22.31v9.41c0,110.87-.06,221.75,.13,332.62,0,6.21-1.51,8.01-7.99,8.47-27.14,1.92-54.47,3.18-81.3,7.4-55.37,8.68-107.18,27.48-153.5,59.84-2.15,1.51-4.2,3.16-7.51,5.69h272.48Zm-336.55-.08c-2.99-2.34-4.77-4.1-6.86-5.31-16.29-9.47-32.08-19.97-49.05-28.02-58.47-27.69-120.74-38.73-185.05-39.56-6.84-.1-8.97-1.65-8.95-8.91,.27-110.91,.17-221.83,.17-332.74v-8.74H23.42V487.95H295.44Z"/>
  <path class="cls-1" d="M111.14,85.67c-9.1-.33-15.08,4.25-15.18,11.63-.08,7.07,5.37,10.46,14.2,12.07,17.31,3.18,34.88,6.19,51.48,11.79,40.46,13.65,76.51,35.84,111.03,60.62,6.78,4.87,13.84,4.16,17.92-1.4,4.14-5.65,2.66-12.55-4.06-17.44-30.4-22.06-62.31-41.57-96.9-56.35-25.13-10.73-50.96-19.07-78.5-20.91l.02-.02Zm2.26,65.49c-11.46-.34-17.36,3.97-17.44,11.5-.06,7.24,5.48,10.46,14.89,12.21,17.54,3.24,35.28,6.42,52.09,12.15,39.96,13.61,75.59,35.65,109.74,60.14,6.88,4.94,13.76,4.22,17.9-1.42,4.14-5.67,2.68-12.57-4.04-17.46-32.12-23.29-65.89-43.72-102.71-58.76-23.13-9.45-46.88-16.66-70.43-18.36h0Zm.04,65.39h-2.93c-8.91-.08-14.43,4.25-14.53,11.42-.1,6.86,4.94,11.5,13.47,11.98,21.66,1.21,42.05,7.53,62.02,15.37,36.4,14.3,69.51,34.46,101.18,57.15,7.01,5.04,13.57,4.39,17.86-1.32,4.22-5.62,2.8-12.57-3.93-17.44-30.95-22.48-63.5-42.3-98.82-57.19-24.09-10.16-48.85-18.04-74.33-19.97Zm-.57,65.49c-.69-.04-1.4-.1-2.09-.11-8.87-.25-14.51,4.01-14.82,11.15-.31,7.03,5.02,10.64,13.91,12.29,17.08,3.18,34.42,6.09,50.83,11.56,40.75,13.59,76.99,35.9,111.74,60.76,7.23,5.17,14.18,4.48,18.34-1.51,3.97-5.73,2.34-12.38-4.54-17.36-27.73-20.12-56.77-38.12-88.01-52.32-27.22-12.38-55.22-22.23-85.36-24.46v.02Z"/>
  <path class="cls-2" d="M559.41,97.75c-.15,5.73-4.5,10.85-10.46,11.23-45.98,3.05-85.92,22.73-124.64,45.48-14.62,8.59-28.17,18.96-42.68,27.77-3.39,2.07-9.22,2.55-12.84,1.07-2.93-1.19-5.52-6.29-5.88-9.87-.29-2.99,2.07-7.46,4.66-9.33,45.06-32.75,92.67-60.66,147.46-73.92,10.12-2.45,20.64-3.55,31.05-4.37,7.97-.63,13.53,5,13.34,11.96v-.02Z"/>
  <path class="cls-2" d="M559.43,162.82c0,5.92-4.52,11.23-10.87,11.65-46.25,3.05-86.3,23.02-125.19,45.94-14.2,8.38-27.6,18.15-41.38,27.25-6.38,4.22-12.75,3.64-16.87-1.42-4.2-5.17-3.66-12.5,2.13-16.66,48.49-34.86,99.39-64.86,159.1-76.32,6.82-1.3,13.86-1.88,20.79-2.03,7.15-.15,12.27,5.12,12.27,11.6l.02-.02Z"/>
  <path class="cls-2" d="M559.43,228.29c-.06,5.69-4.22,10.87-10.31,11.37-57.08,4.6-104.74,31.95-151.18,62.27-5.85,3.81-11.35,8.16-17.21,11.92-5.86,3.74-12.29,2.4-16.08-2.89-3.68-5.16-2.91-12.02,2.7-16.08,46.29-33.5,95.1-62.04,151.56-74.84,9.24-2.09,18.86-2.78,28.35-3.32,7.11-.4,12.23,5.08,12.17,11.58h0Z"/>
  <path class="cls-2" d="M559.43,293.64c-.04,5.73-4.35,10.91-10.29,11.35-49.37,3.66-91.82,25.51-133.03,50.52-11.33,6.88-22.06,14.7-33.04,22.14-7.46,5.06-14.16,4.62-18.42-1.32-4.2-5.86-2.45-12.57,4.87-17.81,43.2-30.88,88.58-57.59,140.56-70.95,11.84-3.05,24.23-4.31,36.45-5.5,7.59-.73,12.94,4.83,12.88,11.56l.02,.02Z"/>
  <path class="cls-2" d="M111.14,85.69c27.54,1.84,53.38,10.16,78.5,20.89,34.59,14.8,66.51,34.29,96.9,56.35,6.73,4.89,8.22,11.79,4.06,17.44-4.08,5.58-11.14,6.27-17.92,1.4-34.54-24.76-70.59-46.98-111.03-60.62-16.62-5.6-34.17-8.61-51.48-11.79-8.84-1.63-14.3-5-14.2-12.07,.1-7.38,6.08-11.96,15.18-11.63l-.02,.04Z"/>
  <path class="cls-2" d="M113.42,151.18c23.55,1.69,47.3,8.89,70.43,18.36,36.82,15.05,70.59,35.5,102.71,58.76,6.73,4.89,8.2,11.79,4.04,17.46-4.12,5.65-11.02,6.36-17.9,1.42-34.15-24.49-69.76-46.53-109.74-60.14-16.81-5.73-34.58-8.91-52.09-12.15-9.41-1.72-14.97-4.96-14.89-12.21,.08-7.55,5.98-11.86,17.44-11.5h0Z"/>
  <path class="cls-2" d="M113.46,216.58c25.47,1.94,50.23,9.81,74.33,19.97,35.34,14.89,67.87,34.71,98.82,57.19,6.73,4.89,8.15,11.84,3.93,17.44-4.29,5.71-10.85,6.36-17.86,1.32-31.68-22.69-64.78-42.85-101.18-57.15-19.99-7.84-40.36-14.16-62.02-15.37-8.53-.48-13.59-5.12-13.47-11.98,.11-7.17,5.63-11.5,14.53-11.42h2.93Z"/>
  <path class="cls-2" d="M112.89,282.07c30.15,2.2,58.15,12.07,85.36,24.46,31.24,14.2,60.28,32.2,88.01,52.32,6.88,4.98,8.51,11.63,4.54,17.36-4.16,6-11.12,6.69-18.34,1.51-34.75-24.86-70.99-47.19-111.74-60.76-16.41-5.48-33.75-8.38-50.83-11.56-8.89-1.65-14.22-5.23-13.91-12.29,.31-7.15,5.94-11.4,14.82-11.15,.69,.02,1.4,.08,2.09,.11v-.02Z"/>
</svg>