<?xml version="1.0" encoding="UTF-8"?>
<svg id="OBJECTS" xmlns="http://www.w3.org/2000/svg" viewBox="0 0 320.55 343.42">
  <path d="M10.27,343.42c6.98-27.9,13.81-54.86,20.33-81.9,.6-2.5,.09-6.08-1.35-8.15C7.44,221.99-2.01,187.23,.35,149.21,4.81,77.49,59.29,15.87,130.31,2.94c43.27-7.87,83.95-.08,120.26,24.96,41.01,28.29,65.17,67.6,69.29,117.54,5.42,65.66-21.11,116.36-75.9,152.17-20.3,13.27-43.16,20.19-67.38,22.7-25.82,2.67-50.64-1.1-74.86-10.08-2.13-.79-5.19-.17-7.46,.7-26.37,10.15-52.67,20.48-79,30.75-1.35,.53-2.75,.96-4.99,1.74Zm9.58-10.79c2.45-.82,4.04-1.28,5.58-1.88,22.6-8.83,45.22-17.58,67.74-26.59,4.14-1.66,7.59-1.68,11.8-.02,26.43,10.41,53.95,13.71,81.71,8.19,57.79-11.5,97.86-44.9,118.76-100.32,9.53-25.27,11.47-51.53,6.68-78.01-6.21-34.28-21.96-63.73-48.03-87.01C225.44,12.47,180.18,.26,129.46,9.92c-31.23,5.95-58.1,20.88-79.9,44.15C13.16,92.91,.06,138.83,9.56,191.08c4.1,22.59,13.74,42.92,27.27,61.45,1.05,1.44,2.03,3.71,1.67,5.28-2.15,9.54-4.74,18.98-7.11,28.47-3.79,15.11-7.53,30.22-11.54,46.34Z"/>
  <path d="M48.43,296.75c4.19-14.86,8.11-29.22,12.38-43.48,.98-3.28,.63-5.6-1.52-8.17-21.68-25.88-32.25-56-30.33-89.44,2.86-49.6,26.64-86.94,70.35-111.05,22.03-12.16,45.98-16.57,70.84-14.75,57.33,4.2,105.42,44.91,118.64,102.04,13.75,59.39-16.13,121.52-71.1,147.89-19.53,9.37-40.24,13.89-61.81,13.07-18.04-.69-35.62-4.48-51.82-12.92-3.76-1.96-6.86-2.12-10.71-.55-14,5.68-28.11,11.08-42.19,16.57-.71,.28-1.47,.44-2.73,.81ZM91.8,122.22c-.41,.1-.82,.21-1.24,.31,2.41,9.6,4.08,19.46,7.37,28.74,9.02,25.46,26.27,44.89,47.29,61.12,18.96,14.65,39.53,25.55,64.3,26.68,9.93,.46,17.02-3.95,24-10.05,7.65-6.7,9.21-14.68,7.31-24.22-.61-3.08-1.74-4.5-4.5-5.54-10.56-3.99-21.06-8.14-31.57-12.28-3.7-1.46-7.06-1.41-10.15,1.48-3.52,3.29-7.35,6.28-10.69,9.75-2.29,2.38-4.3,2.81-6.91,.86-5.05-3.78-10.29-7.33-15.16-11.32-11.53-9.45-21.21-20.6-29.56-32.95-2.2-3.25-2.48-5.73,.81-8.57,3.13-2.7,5.6-6.16,8.57-9.06,3.5-3.4,3.69-7.16,2.02-11.41-4.13-10.51-8.19-21.05-12.32-31.56-.48-1.21-1.11-3.27-1.82-3.33-6.05-.55-12.76-2.51-18.08-.65-11.96,4.18-20.25,19.17-19.67,31.99Z"/>
</svg>